{"title":"Brault - La Lutte","uid":5203911,"size":419395183,"categoryP":"video","categoryS":"movies","magnet":"?xt=urn:btih:02c61f936b20486ef41e5f2121686580c147d28a&amp;dn=Brault+-+La+Lutte&amp;tr=udp%3A%2F%2Ftracker.openbittorrent.com%3A80&amp;tr=udp%3A%2F%2Fopen.demonii.com%3A1337&amp;tr=udp%3A%2F%2Ftracker.coppersurfer.tk%3A6969&amp;tr=udp%3A%2F%2Fexodus.desync.com%3A6969","seeders":1,"leechers":0,"uploader":"mfccorrea","files":2,"time":1260290504,"description":"A candid-camera view of professional wrestling as seen in the MontrÃƒÂ©al Forum, where some of the biggest bouts are staged, and in back-street wrestling parlors where the warriors practice their art. Nothing escapes the probing camera as well-muscled tyros grapple, punch, squirm, roar and grimace, adding their own variations of showmanship to amuse and excite the crowd. In French with English subtitles.\n\n      Complete name : La Lutte.avi\n      Format : AVI\n      Format/Info : Audio Video Interleave\n      File size : 400 MiB\n      Duration : 27mn 48s\n      Overall bit rate : 2 011 Kbps\n      Writing application : VirtualDubMod 1.5.4.1 (build 2178/release)\n      Writing library : VirtualDubMod build 2178/release\n   Video #0\n      ID : 0\n      Format : MPEG-4 Visual\n      Format profile : AdvancedSimple@L5\n      Format settings, BVOP : Yes\n      Format settings, QPel : No\n      Format settings, GMC : No warppoints\n      Format settings, Matrix : Custom\n      Codec ID : XVID\n      Codec ID/Hint : XviD\n      Duration : 27mn 48s\n      Bit rate : 1 901 Kbps\n      Width : 512 pixels\n      Height : 384 pixels\n      Display aspect ratio : 4:3\n      Frame rate : 23.976 fps\n      Resolution : 24 bits\n      Colorimetry : 4:2:0\n      Scan type : Progressive\n      Bits/(Pixel*Frame) : 0.403\n      Stream size : 378 MiB (94%)\n      Writing library : XviD 1.2.0.dev47 (UTC 2006-11-01)\n   Audio #1\n      ID : 1\n      Format : MPEG Audio\n      Format version : Version 1\n      Format profile : Layer 3\n      Codec ID : 55\n      Codec ID/Hint : MP3\n      Duration : 27mn 48s\n      Bit rate mode : Variable\n      Bit rate : 97.9 Kbps\n      Nominal bit rate : 128 Kbps\n      Channel(s) : 2 channels\n      Sampling rate : 48.0 KHz\n      Resolution : 16 bits\n      Stream size : 19.5 MiB (5%)\n      Alignment : Aligned on interleaves\n      Interleave, duration : 24 ms (0.58 video frame)\n      Interleave, preload duration : 488 ms\n      Writing library : LAME3.97 \n      Encoding settings : -m j -V 4 -q 2 -lowpass 17 --abr 128\n\nIMDB: tt0055104","torrent":{"xt":"urn:btih:02c61f936b20486ef41e5f2121686580c147d28a","amp;dn":"Brault+-+La+Lutte","amp;tr":["udp%3A%2F%2Ftracker.openbittorrent.com%3A80","udp%3A%2F%2Fopen.demonii.com%3A1337","udp%3A%2F%2Ftracker.coppersurfer.tk%3A6969","udp%3A%2F%2Fexodus.desync.com%3A6969"],"infoHash":"02c61f936b20486ef41e5f2121686580c147d28a","infoHashBuffer":{"type":"Buffer","data":[2,198,31,147,107,32,72,110,244,30,95,33,33,104,101,128,193,71,210,138]},"announce":[],"urlList":[]}}